# xmcd
#
# Track frame offsets: 
#        150
#        27795
#        53390
#        80260
#        98813
#        114690
#        139590
#        161575
#        183548
#
# Disc length: 2676 seconds
#
# Revision: 0
# Processed by: cddbd v1.5.2PL0 Copyright (c) Steve Scherf et al.
# Submitted via: ExactAudioCopyFreeDBPlugin 1.0
#
DISCID=670a7209
DTITLE=Gary B.B. Coleman  - If You Can Beat Me Rockin' (You Can Have M
DTITLE=y Chair)
DYEAR=1988
DGENRE=Blues
TTITLE0=Watch Where You Stroke
TTITLE1=Cloud Nine
TTITLE2=Please Don't Dog Me
TTITLE3=If The Washing Don't Get You (The Rinsing Sure Will)
TTITLE4=If You Can Beat Me Rockin' (You Can Have My Chair)
TTITLE5=It Just Ain't Right
TTITLE6=Rub My Back
TTITLE7=St. James Infirmary
TTITLE8=Hide Away
EXTD=
EXTT0=
EXTT1=
EXTT2=
EXTT3=
EXTT4=
EXTT5=
EXTT6=
EXTT7=
EXTT8=
PLAYORDER=
